<svg width="1579" height="1132" fill="none" xmlns="http://www.w3.org/2000/svg"><g opacity=".3"><path d="m-2118 1221 1599.407-759 1164.296-30 354.09-531h657.167M69.556 1803 1251.86 903l30-618L1813 225v-336m-148.61 11.429-625.87 16L675.997 425l-1110.283 58-1579.544 765.71M1671.82-100.143l-594.58 32L706.29 418l-1056.269 86-1559.681 772.43M1679.25-100.714l-563.28 48L736.584 411-265.671 525l-1539.819 779.14M1686.68-101.286l-531.99 64L766.877 404l-948.241 142-1519.956 785.86M1694.11-101.857l-500.7 80L797.17 397-97.057 567l-1500.093 792.57M1701.54-102.428l-469.4 96L827.464 390-12.75 588l-1480.23 799.29M1708.97-103 1270.86 9 857.757 383l-786.2 226-1460.367 806M1716.4-103.571l-406.81 128L888.05 376 155.864 630l-1440.514 812.71M1723.83-104.143l-375.52 144L918.344 369 240.171 651l-1420.651 819.43M1731.26-104.714l-344.23 160L948.637 362 324.479 672l-1400.789 826.14M1738.7-105.286l-312.94 176L978.931 355 408.786 693l-1380.923 832.86M1746.13-105.857l-281.65 192L1009.22 348 493.093 714l-1361.061 839.57M1753.56-106.429l-250.35 208L1039.52 341 577.4 735l-1341.198 846.29M1760.99-107l-219.06 224-472.12 217-408.103 422-1321.336 853M1768.42-107.572l-187.76 240L1100.1 327 746.014 777-555.46 1636.71M1775.85-108.143l-156.47 256L1130.4 320 830.321 798-451.29 1664.43M1783.28-108.714l-125.18 272L1160.69 313 914.629 819l-1261.75 873.14M1790.71-109.286l-93.88 288L1190.98 306 998.936 840l-1241.887 879.86M1798.14-109.857l-62.59 304L1221.28 299l-138.04 562-1222.022 886.57M1805.57-110.429l-31.29 320L1251.57 292l-84.02 590-1202.163 893.29" stroke="#46595B"/><path d="m-2118 1221 1599.407-759 1164.296-30 354.09-531h657.167M69.556 1803 1251.86 903l30-618L1813 225v-336m-148.61 11.429-625.87 16L675.997 425l-1110.283 58-1579.544 765.71M1671.82-100.143l-594.58 32L706.29 418l-1056.269 86-1559.681 772.43M1679.25-100.714l-563.28 48L736.584 411-265.671 525l-1539.819 779.14M1686.68-101.286l-531.99 64L766.877 404l-948.241 142-1519.956 785.86M1694.11-101.857l-500.7 80L797.17 397-97.057 567l-1500.093 792.57M1701.54-102.428l-469.4 96L827.464 390-12.75 588l-1480.23 799.29M1708.97-103 1270.86 9 857.757 383l-786.2 226-1460.367 806M1716.4-103.571l-406.81 128L888.05 376 155.864 630l-1440.514 812.71M1723.83-104.143l-375.52 144L918.344 369 240.171 651l-1420.651 819.43M1731.26-104.714l-344.23 160L948.637 362 324.479 672l-1400.789 826.14M1738.7-105.286l-312.94 176L978.931 355 408.786 693l-1380.923 832.86M1746.13-105.857l-281.65 192L1009.22 348 493.093 714l-1361.061 839.57M1753.56-106.429l-250.35 208L1039.52 341 577.4 735l-1341.198 846.29M1760.99-107l-219.06 224-472.12 217-408.103 422-1321.336 853M1768.42-107.572l-187.76 240L1100.1 327 746.014 777-555.46 1636.71M1775.85-108.143l-156.47 256L1130.4 320 830.321 798-451.29 1664.43M1783.28-108.714l-125.18 272L1160.69 313 914.629 819l-1261.75 873.14M1790.71-109.286l-93.88 288L1190.98 306 998.936 840l-1241.887 879.86M1798.14-109.857l-62.59 304L1221.28 299l-138.04 562-1222.022 886.57M1805.57-110.429l-31.29 320L1251.57 292l-84.02 590-1202.163 893.29" stroke="url(#a)"/></g><defs><linearGradient id="a" x1="-316.934" y1="970.603" x2="58.152" y2="467.032" gradientUnits="userSpaceOnUse"><stop stop-color="#16161C"/><stop offset="1" stop-color="#fff" stop-opacity="0"/></linearGradient></defs></svg>