<svg width="1231" height="215" viewBox="0 0 1231 215" fill="none" xmlns="http://www.w3.org/2000/svg">
<path d="M164.33 131.36C170.423 139.36 173.47 149.173 173.47 160.8C173.47 177.293 167.063 189.96 154.25 198.8C141.437 207.64 122.753 212.073 98.2 212.1H0.890015V24H92.83C115.77 24 133.377 28.39 145.65 37.17C157.923 45.95 164.063 57.8667 164.07 72.92C164.251 81.4798 161.997 89.9149 157.571 97.2439C153.145 104.573 146.73 110.495 139.07 114.32C149.823 117.713 158.243 123.393 164.33 131.36ZM44.17 56.76V101.12H87.45C98.2033 101.12 106.357 99.2367 111.91 95.47C117.463 91.7033 120.243 86.15 120.25 78.81C120.25 71.4767 117.47 65.9667 111.91 62.28C106.35 58.5933 98.1967 56.7533 87.45 56.76H44.17ZM120.92 173.7C126.74 169.94 129.653 164.117 129.66 156.23C129.66 140.643 118.1 132.847 94.98 132.84H44.17V179.35H95C106.447 179.35 115.087 177.467 120.92 173.7Z" fill="white"/>
<path d="M203.58 67.52H245.52V212.14H203.58V67.52Z" fill="white"/>
<path d="M312.32 204.75C300.603 198.726 290.797 189.556 284 178.27C277.18 166.983 273.773 154.17 273.78 139.83C273.787 125.49 277.193 112.677 284 101.39C290.808 90.0984 300.629 80.9284 312.36 74.91C324.453 68.55 338.12 65.37 353.36 65.37C368.6 65.37 382.22 68.55 394.22 74.91C405.896 80.9584 415.668 90.1242 422.45 101.39C429.263 112.677 432.667 125.49 432.66 139.83C432.653 154.17 429.233 166.983 422.4 178.27C415.618 189.536 405.846 198.702 394.17 204.75C382.17 211.11 368.55 214.29 353.31 214.29C338.07 214.29 324.407 211.11 312.32 204.75ZM379.79 169C386.69 161.74 390.14 152.017 390.14 139.83C390.14 127.643 386.69 117.92 379.79 110.66C372.89 103.413 364.063 99.7867 353.31 99.78C342.557 99.7733 333.687 103.4 326.7 110.66C319.707 117.92 316.213 127.643 316.22 139.83C316.227 152.017 319.72 161.74 326.7 169C333.693 176.26 342.563 179.887 353.31 179.88C364.057 179.873 372.883 176.247 379.79 169Z" fill="white"/>
<path d="M627 131.36C633.087 139.36 636.133 149.173 636.14 160.8C636.14 177.293 629.733 189.96 616.92 198.8C604.107 207.64 585.44 212.073 560.92 212.1H463.53V24H555.46C578.4 24 596.01 28.39 608.29 37.17C620.57 45.95 626.707 57.8667 626.7 72.92C626.879 81.4795 624.625 89.9141 620.2 97.243C615.774 104.572 609.359 110.494 601.7 114.32C612.453 117.713 620.887 123.393 627 131.36ZM506.84 56.76V101.12H550.12C560.873 101.12 569.027 99.2367 574.58 95.47C580.133 91.7033 582.91 86.15 582.91 78.81C582.91 71.4767 580.133 65.9667 574.58 62.28C569.027 58.5933 560.873 56.7533 550.12 56.76H506.84ZM583.56 173.7C589.38 169.94 592.29 164.117 592.29 156.23C592.29 140.643 580.73 132.847 557.61 132.84H506.81V179.35H557.61C569.083 179.35 577.733 177.467 583.56 173.7Z" fill="white"/>
<path d="M666.22 12.68H708.15V212.14H666.22V12.68Z" fill="white"/>
<path d="M857.08 81.36C869.08 92.0267 875.08 108.11 875.08 129.61V212.14H835.84V194.14C827.947 207.573 813.253 214.29 791.76 214.29C780.64 214.29 771.007 212.41 762.86 208.65C754.713 204.89 748.483 199.693 744.17 193.06C739.841 186.33 737.597 178.471 737.72 170.47C737.72 157.037 742.783 146.467 752.91 138.76C763.037 131.053 778.673 127.2 799.82 127.2H833.15C833.15 118.06 830.373 111.023 824.82 106.09C819.267 101.157 810.933 98.6934 799.82 98.7C792.102 98.7014 784.434 99.9266 777.1 102.33C770.232 104.441 763.798 107.763 758.1 112.14L743.1 82.84C751.741 76.9417 761.335 72.5777 771.46 69.94C782.534 66.8844 793.972 65.347 805.46 65.37C827.86 65.37 845.067 70.7 857.08 81.36ZM821.33 181.09C826.887 177.768 831.078 172.574 833.15 166.44V151.66H804.39C787.19 151.66 778.587 157.303 778.58 168.59C778.499 171.075 779.034 173.541 780.137 175.769C781.239 177.996 782.876 179.917 784.9 181.36C789.113 184.5 794.893 186.07 802.24 186.07C808.94 186.192 815.544 184.469 821.33 181.09V181.09Z" fill="white"/>
<path d="M943 204.75C931.137 198.77 921.177 189.6 914.24 178.27C907.34 166.983 903.89 154.17 903.89 139.83C903.89 125.49 907.34 112.677 914.24 101.39C921.177 90.0603 931.137 80.89 943 74.91C955.28 68.55 969.123 65.37 984.53 65.37C999.77 65.37 1013.08 68.55 1024.45 74.91C1035.55 80.9709 1044.31 90.5745 1049.32 102.19L1016.79 119.67C1009.26 106.41 998.417 99.78 984.27 99.78C973.33 99.78 964.277 103.363 957.11 110.53C949.943 117.697 946.36 127.463 946.36 139.83C946.36 152.197 949.943 161.963 957.11 169.13C964.277 176.297 973.33 179.88 984.27 179.88C998.597 179.88 1009.44 173.25 1016.79 159.99L1049.32 177.73C1044.16 189.152 1035.44 198.589 1024.45 204.62C1013.07 211.073 999.763 214.297 984.53 214.29C969.097 214.29 955.253 211.11 943 204.75Z" fill="white"/>
<path d="M1134.49 155.42L1114.33 175.32V212.14H1072.4V12.68H1114.33V125.58L1175.62 67.52H1225.62L1165.41 128.81L1231 212.14H1180.19L1134.49 155.42Z" fill="white"/>
<path d="M205.28 39.32C203.16 37.0197 201.538 34.3072 200.514 31.3517C199.49 28.3961 199.086 25.2612 199.329 22.1427C199.571 19.0242 200.453 15.9892 201.921 13.2272C203.389 10.4651 205.411 8.03547 207.86 6.08996C213.027 2.0033 219.453 0.253296 227.14 0.839963" fill="#69B32C"/>
<path d="M245.4 8.72998C247.568 10.8872 249.231 13.4987 250.269 16.3761C251.306 19.2535 251.693 22.3252 251.4 25.37C251.24 28.608 250.393 31.7749 248.913 34.6597C247.434 37.5444 245.356 40.0809 242.82 42.1C237.64 46.28 231.21 48.0733 223.53 47.48" fill="#69B32C"/>
</svg>
