<svg width="50" height="50" fill="none" xmlns="http://www.w3.org/2000/svg"><path opacity=".1" fill-rule="evenodd" clip-rule="evenodd" d="M25 50c13.807 0 25-11.193 25-25S38.807 0 25 0 0 11.193 0 25s11.193 25 25 25Z" fill="#72B33B"/><path d="M13.527 33.11v-9.082a2.27 2.27 0 0 1 2.27-2.27h18.165a2.27 2.27 0 0 1 2.27 2.27v9.083a2.27 2.27 0 0 1-2.27 2.27H15.798a2.27 2.27 0 0 1-2.271-2.27Z" stroke="#72B33B" stroke-width="2.108" stroke-linecap="round"/><path d="m21.497 29.682.845.846a1.196 1.196 0 0 0 1.692 0l4.23-4.23M15.798 21.758v-1.136a2.27 2.27 0 0 1 2.27-2.27h13.624a2.27 2.27 0 0 1 2.27 2.27v1.136M18.721 18.189v-1.027c0-1.134.92-2.053 2.053-2.053h8.212c1.134 0 2.053.92 2.053 2.053v1.027" stroke="#72B33B" stroke-width="2.108" stroke-linecap="round"/></svg>