<svg width="50" height="50" viewBox="0 0 50 50" fill="none" xmlns="http://www.w3.org/2000/svg">
<path opacity="0.1" fill-rule="evenodd" clip-rule="evenodd" d="M25 50C38.8071 50 50 38.8071 50 25C50 11.1929 38.8071 0 25 0C11.1929 0 0 11.1929 0 25C0 38.8071 11.1929 50 25 50Z" fill="#72B33B"/>
<path d="M13.527 33.1108V24.0284C13.527 22.7744 14.5436 21.7578 15.7976 21.7578H33.9623C35.2163 21.7578 36.2329 22.7744 36.2329 24.0284V33.1108C36.2329 34.3648 35.2163 35.3814 33.9623 35.3814H15.7976C14.5436 35.3814 13.527 34.3648 13.527 33.1108Z" stroke="#72B33B" stroke-width="2.108" stroke-linecap="round"/>
<path d="M21.4966 29.6822L22.3424 30.528C22.8096 30.9952 23.567 30.9952 24.0341 30.528L28.2633 26.2988" stroke="#72B33B" stroke-width="2.108" stroke-linecap="round"/>
<path d="M15.7976 21.7577L15.7976 20.6224C15.7976 19.3684 16.8142 18.3518 18.0682 18.3518H31.6918C32.9458 18.3518 33.9624 19.3684 33.9624 20.6224V21.7577" stroke="#72B33B" stroke-width="2.108" stroke-linecap="round"/>
<path d="M18.7211 18.1886V17.1621C18.7211 16.0283 19.6402 15.1091 20.7741 15.1091H28.986C30.1199 15.1091 31.039 16.0283 31.039 17.1621V18.1886" stroke="#72B33B" stroke-width="2.108" stroke-linecap="round"/>
</svg>
