<svg width="11" height="11" fill="none" xmlns="http://www.w3.org/2000/svg"><path d="M8.298 0H2.224A2.224 2.224 0 0 0 0 2.224v6.074c0 1.228.996 2.224 2.224 2.224h6.074a2.224 2.224 0 0 0 2.224-2.224V2.224A2.224 2.224 0 0 0 8.298 0Z" fill="#262626"/><path d="M9.063 5.286c.238.132.433.328.564.566.137.244.205.527.205.85 0 .324-.068.608-.205.852a1.449 1.449 0 0 1-.564.566 1.6 1.6 0 0 1-.798.202c-.433 0-.762-.136-.988-.41v.363h-.871V3.938h.912v1.526c.23-.253.546-.38.947-.38.292 0 .558.067.798.202Zm-.38 2.052c.15-.158.225-.37.225-.635s-.075-.476-.225-.634a.759.759 0 0 0-.576-.237.76.76 0 0 0-.576.237c-.15.158-.225.37-.225.634 0 .265.075.477.225.635a.76.76 0 0 0 .576.236.76.76 0 0 0 .576-.236Z" fill="#69B32C"/><path d="M6.505 5.626c.2.263.3.586.3.97 0 .543-.21.96-.633 1.252-.422.292-1.037.438-1.845.439H1.12V2.089H4.15c.755 0 1.335.145 1.74.434.404.289.606.682.606 1.178 0 .3-.072.57-.217.805a1.521 1.521 0 0 1-.606.558c.354.112.631.3.832.562ZM2.547 3.17V4.63h1.426c.354 0 .622-.062.805-.186.183-.124.275-.307.275-.549 0-.242-.092-.423-.275-.544-.183-.121-.451-.182-.805-.182H2.547Zm2.528 3.852c.192-.124.287-.316.288-.576 0-.513-.381-.77-1.143-.77H2.547v1.532H4.22c.378 0 .663-.062.855-.186Z" fill="#fff"/></svg>