<svg width="100" height="76" viewBox="0 0 100 76" fill="none" xmlns="http://www.w3.org/2000/svg">
<path d="M1.889 3.82799C2.93227 3.82799 3.778 2.98225 3.778 1.93899C3.778 0.895722 2.93227 0.0499878 1.889 0.0499878C0.845734 0.0499878 0 0.895722 0 1.93899C0 2.98225 0.845734 3.82799 1.889 3.82799Z" fill="#626262"/>
<path d="M11.5111 3.82799C12.5543 3.82799 13.4001 2.98225 13.4001 1.93899C13.4001 0.895722 12.5543 0.0499878 11.5111 0.0499878C10.4678 0.0499878 9.62207 0.895722 9.62207 1.93899C9.62207 2.98225 10.4678 3.82799 11.5111 3.82799Z" fill="#626262"/>
<path d="M21.1329 3.82799C22.1762 3.82799 23.0219 2.98225 23.0219 1.93899C23.0219 0.895722 22.1762 0.0499878 21.1329 0.0499878C20.0896 0.0499878 19.2439 0.895722 19.2439 1.93899C19.2439 2.98225 20.0896 3.82799 21.1329 3.82799Z" fill="#626262"/>
<path d="M30.7559 3.82799C31.7992 3.82799 32.6449 2.98225 32.6449 1.93899C32.6449 0.895722 31.7992 0.0499878 30.7559 0.0499878C29.7127 0.0499878 28.8669 0.895722 28.8669 1.93899C28.8669 2.98225 29.7127 3.82799 30.7559 3.82799Z" fill="#626262"/>
<path d="M40.378 3.82799C41.4213 3.82799 42.267 2.98225 42.267 1.93899C42.267 0.895722 41.4213 0.0499878 40.378 0.0499878C39.3347 0.0499878 38.489 0.895722 38.489 1.93899C38.489 2.98225 39.3347 3.82799 40.378 3.82799Z" fill="#626262"/>
<path d="M50.0001 3.82799C51.0433 3.82799 51.8891 2.98225 51.8891 1.93899C51.8891 0.895722 51.0433 0.0499878 50.0001 0.0499878C48.9568 0.0499878 48.1111 0.895722 48.1111 1.93899C48.1111 2.98225 48.9568 3.82799 50.0001 3.82799Z" fill="#626262"/>
<path d="M59.6219 3.82799C60.6652 3.82799 61.5109 2.98225 61.5109 1.93899C61.5109 0.895722 60.6652 0.0499878 59.6219 0.0499878C58.5786 0.0499878 57.7329 0.895722 57.7329 1.93899C57.7329 2.98225 58.5786 3.82799 59.6219 3.82799Z" fill="#626262"/>
<path d="M69.244 3.82799C70.2872 3.82799 71.133 2.98225 71.133 1.93899C71.133 0.895722 70.2872 0.0499878 69.244 0.0499878C68.2007 0.0499878 67.355 0.895722 67.355 1.93899C67.355 2.98225 68.2007 3.82799 69.244 3.82799Z" fill="#626262"/>
<path d="M78.867 3.82799C79.9103 3.82799 80.756 2.98225 80.756 1.93899C80.756 0.895722 79.9103 0.0499878 78.867 0.0499878C77.8238 0.0499878 76.978 0.895722 76.978 1.93899C76.978 2.98225 77.8238 3.82799 78.867 3.82799Z" fill="#626262"/>
<path d="M88.4891 3.82799C89.5324 3.82799 90.3781 2.98225 90.3781 1.93899C90.3781 0.895722 89.5324 0.0499878 88.4891 0.0499878C87.4458 0.0499878 86.6001 0.895722 86.6001 1.93899C86.6001 2.98225 87.4458 3.82799 88.4891 3.82799Z" fill="#626262"/>
<path d="M98.1109 3.82799C99.1542 3.82799 99.9999 2.98225 99.9999 1.93899C99.9999 0.895722 99.1542 0.0499878 98.1109 0.0499878C97.0677 0.0499878 96.2219 0.895722 96.2219 1.93899C96.2219 2.98225 97.0677 3.82799 98.1109 3.82799Z" fill="#626262"/>
<path d="M1.889 12.843C2.93227 12.843 3.778 11.9973 3.778 10.954C3.778 9.91074 2.93227 9.065 1.889 9.065C0.845734 9.065 0 9.91074 0 10.954C0 11.9973 0.845734 12.843 1.889 12.843Z" fill="#626262"/>
<path d="M11.5111 12.843C12.5543 12.843 13.4001 11.9973 13.4001 10.954C13.4001 9.91074 12.5543 9.065 11.5111 9.065C10.4678 9.065 9.62207 9.91074 9.62207 10.954C9.62207 11.9973 10.4678 12.843 11.5111 12.843Z" fill="#626262"/>
<path d="M21.1329 12.843C22.1762 12.843 23.0219 11.9973 23.0219 10.954C23.0219 9.91074 22.1762 9.065 21.1329 9.065C20.0896 9.065 19.2439 9.91074 19.2439 10.954C19.2439 11.9973 20.0896 12.843 21.1329 12.843Z" fill="#626262"/>
<path d="M30.7559 12.843C31.7992 12.843 32.6449 11.9973 32.6449 10.954C32.6449 9.91074 31.7992 9.065 30.7559 9.065C29.7127 9.065 28.8669 9.91074 28.8669 10.954C28.8669 11.9973 29.7127 12.843 30.7559 12.843Z" fill="#626262"/>
<path d="M40.378 12.843C41.4213 12.843 42.267 11.9973 42.267 10.954C42.267 9.91074 41.4213 9.065 40.378 9.065C39.3347 9.065 38.489 9.91074 38.489 10.954C38.489 11.9973 39.3347 12.843 40.378 12.843Z" fill="#626262"/>
<path d="M50.0001 12.843C51.0433 12.843 51.8891 11.9973 51.8891 10.954C51.8891 9.91074 51.0433 9.065 50.0001 9.065C48.9568 9.065 48.1111 9.91074 48.1111 10.954C48.1111 11.9973 48.9568 12.843 50.0001 12.843Z" fill="#626262"/>
<path d="M59.6219 12.843C60.6652 12.843 61.5109 11.9973 61.5109 10.954C61.5109 9.91074 60.6652 9.065 59.6219 9.065C58.5786 9.065 57.7329 9.91074 57.7329 10.954C57.7329 11.9973 58.5786 12.843 59.6219 12.843Z" fill="#626262"/>
<path d="M69.244 12.843C70.2872 12.843 71.133 11.9973 71.133 10.954C71.133 9.91074 70.2872 9.065 69.244 9.065C68.2007 9.065 67.355 9.91074 67.355 10.954C67.355 11.9973 68.2007 12.843 69.244 12.843Z" fill="#626262"/>
<path d="M78.867 12.843C79.9103 12.843 80.756 11.9973 80.756 10.954C80.756 9.91074 79.9103 9.065 78.867 9.065C77.8238 9.065 76.978 9.91074 76.978 10.954C76.978 11.9973 77.8238 12.843 78.867 12.843Z" fill="#626262"/>
<path d="M88.4891 12.843C89.5324 12.843 90.3781 11.9973 90.3781 10.954C90.3781 9.91074 89.5324 9.065 88.4891 9.065C87.4458 9.065 86.6001 9.91074 86.6001 10.954C86.6001 11.9973 87.4458 12.843 88.4891 12.843Z" fill="#626262"/>
<path d="M98.1109 12.843C99.1542 12.843 99.9999 11.9973 99.9999 10.954C99.9999 9.91074 99.1542 9.065 98.1109 9.065C97.0677 9.065 96.2219 9.91074 96.2219 10.954C96.2219 11.9973 97.0677 12.843 98.1109 12.843Z" fill="#626262"/>
<path d="M1.889 21.858C2.93227 21.858 3.778 21.0123 3.778 19.969C3.778 18.9258 2.93227 18.08 1.889 18.08C0.845734 18.08 0 18.9258 0 19.969C0 21.0123 0.845734 21.858 1.889 21.858Z" fill="#626262"/>
<path d="M11.5111 21.858C12.5543 21.858 13.4001 21.0123 13.4001 19.969C13.4001 18.9258 12.5543 18.08 11.5111 18.08C10.4678 18.08 9.62207 18.9258 9.62207 19.969C9.62207 21.0123 10.4678 21.858 11.5111 21.858Z" fill="#626262"/>
<path d="M21.1329 21.858C22.1762 21.858 23.0219 21.0123 23.0219 19.969C23.0219 18.9258 22.1762 18.08 21.1329 18.08C20.0896 18.08 19.2439 18.9258 19.2439 19.969C19.2439 21.0123 20.0896 21.858 21.1329 21.858Z" fill="#626262"/>
<path d="M30.7559 21.858C31.7992 21.858 32.6449 21.0123 32.6449 19.969C32.6449 18.9258 31.7992 18.08 30.7559 18.08C29.7127 18.08 28.8669 18.9258 28.8669 19.969C28.8669 21.0123 29.7127 21.858 30.7559 21.858Z" fill="#626262"/>
<path d="M40.378 21.858C41.4213 21.858 42.267 21.0123 42.267 19.969C42.267 18.9258 41.4213 18.08 40.378 18.08C39.3347 18.08 38.489 18.9258 38.489 19.969C38.489 21.0123 39.3347 21.858 40.378 21.858Z" fill="#626262"/>
<path d="M50.0001 21.858C51.0433 21.858 51.8891 21.0123 51.8891 19.969C51.8891 18.9258 51.0433 18.08 50.0001 18.08C48.9568 18.08 48.1111 18.9258 48.1111 19.969C48.1111 21.0123 48.9568 21.858 50.0001 21.858Z" fill="#626262"/>
<path d="M59.6219 21.858C60.6652 21.858 61.5109 21.0123 61.5109 19.969C61.5109 18.9258 60.6652 18.08 59.6219 18.08C58.5786 18.08 57.7329 18.9258 57.7329 19.969C57.7329 21.0123 58.5786 21.858 59.6219 21.858Z" fill="#626262"/>
<path d="M69.244 21.858C70.2872 21.858 71.133 21.0123 71.133 19.969C71.133 18.9258 70.2872 18.08 69.244 18.08C68.2007 18.08 67.355 18.9258 67.355 19.969C67.355 21.0123 68.2007 21.858 69.244 21.858Z" fill="#626262"/>
<path d="M78.867 21.858C79.9103 21.858 80.756 21.0123 80.756 19.969C80.756 18.9258 79.9103 18.08 78.867 18.08C77.8238 18.08 76.978 18.9258 76.978 19.969C76.978 21.0123 77.8238 21.858 78.867 21.858Z" fill="#626262"/>
<path d="M88.4891 21.858C89.5324 21.858 90.3781 21.0123 90.3781 19.969C90.3781 18.9258 89.5324 18.08 88.4891 18.08C87.4458 18.08 86.6001 18.9258 86.6001 19.969C86.6001 21.0123 87.4458 21.858 88.4891 21.858Z" fill="#626262"/>
<path d="M98.1109 21.858C99.1542 21.858 99.9999 21.0123 99.9999 19.969C99.9999 18.9258 99.1542 18.08 98.1109 18.08C97.0677 18.08 96.2219 18.9258 96.2219 19.969C96.2219 21.0123 97.0677 21.858 98.1109 21.858Z" fill="#626262"/>
<path d="M1.889 30.874C2.93227 30.874 3.778 30.0283 3.778 28.985C3.778 27.9417 2.93227 27.096 1.889 27.096C0.845734 27.096 0 27.9417 0 28.985C0 30.0283 0.845734 30.874 1.889 30.874Z" fill="#626262"/>
<path d="M11.5111 30.874C12.5543 30.874 13.4001 30.0283 13.4001 28.985C13.4001 27.9417 12.5543 27.096 11.5111 27.096C10.4678 27.096 9.62207 27.9417 9.62207 28.985C9.62207 30.0283 10.4678 30.874 11.5111 30.874Z" fill="#626262"/>
<path d="M21.1329 30.874C22.1762 30.874 23.0219 30.0283 23.0219 28.985C23.0219 27.9417 22.1762 27.096 21.1329 27.096C20.0896 27.096 19.2439 27.9417 19.2439 28.985C19.2439 30.0283 20.0896 30.874 21.1329 30.874Z" fill="#626262"/>
<path d="M30.7559 30.874C31.7992 30.874 32.6449 30.0283 32.6449 28.985C32.6449 27.9417 31.7992 27.096 30.7559 27.096C29.7127 27.096 28.8669 27.9417 28.8669 28.985C28.8669 30.0283 29.7127 30.874 30.7559 30.874Z" fill="#626262"/>
<path d="M40.378 30.874C41.4213 30.874 42.267 30.0283 42.267 28.985C42.267 27.9417 41.4213 27.096 40.378 27.096C39.3347 27.096 38.489 27.9417 38.489 28.985C38.489 30.0283 39.3347 30.874 40.378 30.874Z" fill="#626262"/>
<path d="M50.0001 30.874C51.0433 30.874 51.8891 30.0283 51.8891 28.985C51.8891 27.9417 51.0433 27.096 50.0001 27.096C48.9568 27.096 48.1111 27.9417 48.1111 28.985C48.1111 30.0283 48.9568 30.874 50.0001 30.874Z" fill="#626262"/>
<path d="M59.6219 30.874C60.6652 30.874 61.5109 30.0283 61.5109 28.985C61.5109 27.9417 60.6652 27.096 59.6219 27.096C58.5786 27.096 57.7329 27.9417 57.7329 28.985C57.7329 30.0283 58.5786 30.874 59.6219 30.874Z" fill="#626262"/>
<path d="M69.244 30.874C70.2872 30.874 71.133 30.0283 71.133 28.985C71.133 27.9417 70.2872 27.096 69.244 27.096C68.2007 27.096 67.355 27.9417 67.355 28.985C67.355 30.0283 68.2007 30.874 69.244 30.874Z" fill="#626262"/>
<path d="M78.867 30.874C79.9103 30.874 80.756 30.0283 80.756 28.985C80.756 27.9417 79.9103 27.096 78.867 27.096C77.8238 27.096 76.978 27.9417 76.978 28.985C76.978 30.0283 77.8238 30.874 78.867 30.874Z" fill="#626262"/>
<path d="M88.4891 30.874C89.5324 30.874 90.3781 30.0283 90.3781 28.985C90.3781 27.9417 89.5324 27.096 88.4891 27.096C87.4458 27.096 86.6001 27.9417 86.6001 28.985C86.6001 30.0283 87.4458 30.874 88.4891 30.874Z" fill="#626262"/>
<path d="M98.1109 30.874C99.1542 30.874 99.9999 30.0283 99.9999 28.985C99.9999 27.9417 99.1542 27.096 98.1109 27.096C97.0677 27.096 96.2219 27.9417 96.2219 28.985C96.2219 30.0283 97.0677 30.874 98.1109 30.874Z" fill="#626262"/>
<path d="M1.889 39.889C2.93227 39.889 3.778 39.0433 3.778 38C3.778 36.9568 2.93227 36.111 1.889 36.111C0.845734 36.111 0 36.9568 0 38C0 39.0433 0.845734 39.889 1.889 39.889Z" fill="#626262"/>
<path d="M11.5111 39.889C12.5543 39.889 13.4001 39.0433 13.4001 38C13.4001 36.9568 12.5543 36.111 11.5111 36.111C10.4678 36.111 9.62207 36.9568 9.62207 38C9.62207 39.0433 10.4678 39.889 11.5111 39.889Z" fill="#626262"/>
<path d="M21.1329 39.889C22.1762 39.889 23.0219 39.0433 23.0219 38C23.0219 36.9568 22.1762 36.111 21.1329 36.111C20.0896 36.111 19.2439 36.9568 19.2439 38C19.2439 39.0433 20.0896 39.889 21.1329 39.889Z" fill="#626262"/>
<path d="M30.7559 39.889C31.7992 39.889 32.6449 39.0433 32.6449 38C32.6449 36.9568 31.7992 36.111 30.7559 36.111C29.7127 36.111 28.8669 36.9568 28.8669 38C28.8669 39.0433 29.7127 39.889 30.7559 39.889Z" fill="#626262"/>
<path d="M40.378 39.889C41.4213 39.889 42.267 39.0433 42.267 38C42.267 36.9568 41.4213 36.111 40.378 36.111C39.3347 36.111 38.489 36.9568 38.489 38C38.489 39.0433 39.3347 39.889 40.378 39.889Z" fill="#626262"/>
<path d="M50.0001 39.889C51.0433 39.889 51.8891 39.0433 51.8891 38C51.8891 36.9568 51.0433 36.111 50.0001 36.111C48.9568 36.111 48.1111 36.9568 48.1111 38C48.1111 39.0433 48.9568 39.889 50.0001 39.889Z" fill="#626262"/>
<path d="M59.6219 39.889C60.6652 39.889 61.5109 39.0433 61.5109 38C61.5109 36.9568 60.6652 36.111 59.6219 36.111C58.5786 36.111 57.7329 36.9568 57.7329 38C57.7329 39.0433 58.5786 39.889 59.6219 39.889Z" fill="#626262"/>
<path d="M69.244 39.889C70.2872 39.889 71.133 39.0433 71.133 38C71.133 36.9568 70.2872 36.111 69.244 36.111C68.2007 36.111 67.355 36.9568 67.355 38C67.355 39.0433 68.2007 39.889 69.244 39.889Z" fill="#626262"/>
<path d="M78.867 39.889C79.9103 39.889 80.756 39.0433 80.756 38C80.756 36.9568 79.9103 36.111 78.867 36.111C77.8238 36.111 76.978 36.9568 76.978 38C76.978 39.0433 77.8238 39.889 78.867 39.889Z" fill="#626262"/>
<path d="M88.4891 39.889C89.5324 39.889 90.3781 39.0433 90.3781 38C90.3781 36.9568 89.5324 36.111 88.4891 36.111C87.4458 36.111 86.6001 36.9568 86.6001 38C86.6001 39.0433 87.4458 39.889 88.4891 39.889Z" fill="#626262"/>
<path d="M98.1109 39.889C99.1542 39.889 99.9999 39.0433 99.9999 38C99.9999 36.9568 99.1542 36.111 98.1109 36.111C97.0677 36.111 96.2219 36.9568 96.2219 38C96.2219 39.0433 97.0677 39.889 98.1109 39.889Z" fill="#626262"/>
<path d="M1.889 48.904C2.93227 48.904 3.778 48.0582 3.778 47.015C3.778 45.9717 2.93227 45.126 1.889 45.126C0.845734 45.126 0 45.9717 0 47.015C0 48.0582 0.845734 48.904 1.889 48.904Z" fill="#626262"/>
<path d="M11.5111 48.904C12.5543 48.904 13.4001 48.0582 13.4001 47.015C13.4001 45.9717 12.5543 45.126 11.5111 45.126C10.4678 45.126 9.62207 45.9717 9.62207 47.015C9.62207 48.0582 10.4678 48.904 11.5111 48.904Z" fill="#626262"/>
<path d="M21.1329 48.904C22.1762 48.904 23.0219 48.0582 23.0219 47.015C23.0219 45.9717 22.1762 45.126 21.1329 45.126C20.0896 45.126 19.2439 45.9717 19.2439 47.015C19.2439 48.0582 20.0896 48.904 21.1329 48.904Z" fill="#626262"/>
<path d="M30.7559 48.904C31.7992 48.904 32.6449 48.0582 32.6449 47.015C32.6449 45.9717 31.7992 45.126 30.7559 45.126C29.7127 45.126 28.8669 45.9717 28.8669 47.015C28.8669 48.0582 29.7127 48.904 30.7559 48.904Z" fill="#626262"/>
<path d="M40.378 48.904C41.4213 48.904 42.267 48.0582 42.267 47.015C42.267 45.9717 41.4213 45.126 40.378 45.126C39.3347 45.126 38.489 45.9717 38.489 47.015C38.489 48.0582 39.3347 48.904 40.378 48.904Z" fill="#626262"/>
<path d="M50.0001 48.904C51.0433 48.904 51.8891 48.0582 51.8891 47.015C51.8891 45.9717 51.0433 45.126 50.0001 45.126C48.9568 45.126 48.1111 45.9717 48.1111 47.015C48.1111 48.0582 48.9568 48.904 50.0001 48.904Z" fill="#626262"/>
<path d="M59.6219 48.904C60.6652 48.904 61.5109 48.0582 61.5109 47.015C61.5109 45.9717 60.6652 45.126 59.6219 45.126C58.5786 45.126 57.7329 45.9717 57.7329 47.015C57.7329 48.0582 58.5786 48.904 59.6219 48.904Z" fill="#626262"/>
<path d="M69.244 48.904C70.2872 48.904 71.133 48.0582 71.133 47.015C71.133 45.9717 70.2872 45.126 69.244 45.126C68.2007 45.126 67.355 45.9717 67.355 47.015C67.355 48.0582 68.2007 48.904 69.244 48.904Z" fill="#626262"/>
<path d="M78.867 48.904C79.9103 48.904 80.756 48.0582 80.756 47.015C80.756 45.9717 79.9103 45.126 78.867 45.126C77.8238 45.126 76.978 45.9717 76.978 47.015C76.978 48.0582 77.8238 48.904 78.867 48.904Z" fill="#626262"/>
<path d="M88.4891 48.904C89.5324 48.904 90.3781 48.0582 90.3781 47.015C90.3781 45.9717 89.5324 45.126 88.4891 45.126C87.4458 45.126 86.6001 45.9717 86.6001 47.015C86.6001 48.0582 87.4458 48.904 88.4891 48.904Z" fill="#626262"/>
<path d="M98.1109 48.904C99.1542 48.904 99.9999 48.0582 99.9999 47.015C99.9999 45.9717 99.1542 45.126 98.1109 45.126C97.0677 45.126 96.2219 45.9717 96.2219 47.015C96.2219 48.0582 97.0677 48.904 98.1109 48.904Z" fill="#626262"/>
<path d="M1.889 57.92C2.93227 57.92 3.778 57.0742 3.778 56.031C3.778 54.9877 2.93227 54.142 1.889 54.142C0.845734 54.142 0 54.9877 0 56.031C0 57.0742 0.845734 57.92 1.889 57.92Z" fill="#626262"/>
<path d="M11.5111 57.92C12.5543 57.92 13.4001 57.0742 13.4001 56.031C13.4001 54.9877 12.5543 54.142 11.5111 54.142C10.4678 54.142 9.62207 54.9877 9.62207 56.031C9.62207 57.0742 10.4678 57.92 11.5111 57.92Z" fill="#626262"/>
<path d="M21.1329 57.92C22.1762 57.92 23.0219 57.0742 23.0219 56.031C23.0219 54.9877 22.1762 54.142 21.1329 54.142C20.0896 54.142 19.2439 54.9877 19.2439 56.031C19.2439 57.0742 20.0896 57.92 21.1329 57.92Z" fill="#626262"/>
<path d="M30.7559 57.92C31.7992 57.92 32.6449 57.0742 32.6449 56.031C32.6449 54.9877 31.7992 54.142 30.7559 54.142C29.7127 54.142 28.8669 54.9877 28.8669 56.031C28.8669 57.0742 29.7127 57.92 30.7559 57.92Z" fill="#626262"/>
<path d="M40.378 57.92C41.4213 57.92 42.267 57.0742 42.267 56.031C42.267 54.9877 41.4213 54.142 40.378 54.142C39.3347 54.142 38.489 54.9877 38.489 56.031C38.489 57.0742 39.3347 57.92 40.378 57.92Z" fill="#626262"/>
<path d="M50.0001 57.92C51.0433 57.92 51.8891 57.0742 51.8891 56.031C51.8891 54.9877 51.0433 54.142 50.0001 54.142C48.9568 54.142 48.1111 54.9877 48.1111 56.031C48.1111 57.0742 48.9568 57.92 50.0001 57.92Z" fill="#626262"/>
<path d="M59.6219 57.92C60.6652 57.92 61.5109 57.0742 61.5109 56.031C61.5109 54.9877 60.6652 54.142 59.6219 54.142C58.5786 54.142 57.7329 54.9877 57.7329 56.031C57.7329 57.0742 58.5786 57.92 59.6219 57.92Z" fill="#626262"/>
<path d="M69.244 57.92C70.2872 57.92 71.133 57.0742 71.133 56.031C71.133 54.9877 70.2872 54.142 69.244 54.142C68.2007 54.142 67.355 54.9877 67.355 56.031C67.355 57.0742 68.2007 57.92 69.244 57.92Z" fill="#626262"/>
<path d="M78.867 57.92C79.9103 57.92 80.756 57.0742 80.756 56.031C80.756 54.9877 79.9103 54.142 78.867 54.142C77.8238 54.142 76.978 54.9877 76.978 56.031C76.978 57.0742 77.8238 57.92 78.867 57.92Z" fill="#626262"/>
<path d="M88.4891 57.92C89.5324 57.92 90.3781 57.0742 90.3781 56.031C90.3781 54.9877 89.5324 54.142 88.4891 54.142C87.4458 54.142 86.6001 54.9877 86.6001 56.031C86.6001 57.0742 87.4458 57.92 88.4891 57.92Z" fill="#626262"/>
<path d="M98.1109 57.92C99.1542 57.92 99.9999 57.0742 99.9999 56.031C99.9999 54.9877 99.1542 54.142 98.1109 54.142C97.0677 54.142 96.2219 54.9877 96.2219 56.031C96.2219 57.0742 97.0677 57.92 98.1109 57.92Z" fill="#626262"/>
<path d="M1.889 66.935C2.93227 66.935 3.778 66.0892 3.778 65.046C3.778 64.0027 2.93227 63.157 1.889 63.157C0.845734 63.157 0 64.0027 0 65.046C0 66.0892 0.845734 66.935 1.889 66.935Z" fill="#626262"/>
<path d="M11.5111 66.935C12.5543 66.935 13.4001 66.0892 13.4001 65.046C13.4001 64.0027 12.5543 63.157 11.5111 63.157C10.4678 63.157 9.62207 64.0027 9.62207 65.046C9.62207 66.0892 10.4678 66.935 11.5111 66.935Z" fill="#626262"/>
<path d="M21.1329 66.935C22.1762 66.935 23.0219 66.0892 23.0219 65.046C23.0219 64.0027 22.1762 63.157 21.1329 63.157C20.0896 63.157 19.2439 64.0027 19.2439 65.046C19.2439 66.0892 20.0896 66.935 21.1329 66.935Z" fill="#626262"/>
<path d="M30.7559 66.935C31.7992 66.935 32.6449 66.0892 32.6449 65.046C32.6449 64.0027 31.7992 63.157 30.7559 63.157C29.7127 63.157 28.8669 64.0027 28.8669 65.046C28.8669 66.0892 29.7127 66.935 30.7559 66.935Z" fill="#626262"/>
<path d="M40.378 66.935C41.4213 66.935 42.267 66.0892 42.267 65.046C42.267 64.0027 41.4213 63.157 40.378 63.157C39.3347 63.157 38.489 64.0027 38.489 65.046C38.489 66.0892 39.3347 66.935 40.378 66.935Z" fill="#626262"/>
<path d="M50.0001 66.935C51.0433 66.935 51.8891 66.0892 51.8891 65.046C51.8891 64.0027 51.0433 63.157 50.0001 63.157C48.9568 63.157 48.1111 64.0027 48.1111 65.046C48.1111 66.0892 48.9568 66.935 50.0001 66.935Z" fill="#626262"/>
<path d="M59.6219 66.935C60.6652 66.935 61.5109 66.0892 61.5109 65.046C61.5109 64.0027 60.6652 63.157 59.6219 63.157C58.5786 63.157 57.7329 64.0027 57.7329 65.046C57.7329 66.0892 58.5786 66.935 59.6219 66.935Z" fill="#626262"/>
<path d="M69.244 66.935C70.2872 66.935 71.133 66.0892 71.133 65.046C71.133 64.0027 70.2872 63.157 69.244 63.157C68.2007 63.157 67.355 64.0027 67.355 65.046C67.355 66.0892 68.2007 66.935 69.244 66.935Z" fill="#626262"/>
<path d="M78.867 66.935C79.9103 66.935 80.756 66.0892 80.756 65.046C80.756 64.0027 79.9103 63.157 78.867 63.157C77.8238 63.157 76.978 64.0027 76.978 65.046C76.978 66.0892 77.8238 66.935 78.867 66.935Z" fill="#626262"/>
<path d="M88.4891 66.935C89.5324 66.935 90.3781 66.0892 90.3781 65.046C90.3781 64.0027 89.5324 63.157 88.4891 63.157C87.4458 63.157 86.6001 64.0027 86.6001 65.046C86.6001 66.0892 87.4458 66.935 88.4891 66.935Z" fill="#626262"/>
<path d="M98.1109 66.935C99.1542 66.935 99.9999 66.0892 99.9999 65.046C99.9999 64.0027 99.1542 63.157 98.1109 63.157C97.0677 63.157 96.2219 64.0027 96.2219 65.046C96.2219 66.0892 97.0677 66.935 98.1109 66.935Z" fill="#626262"/>
<path d="M1.889 75.95C2.93227 75.95 3.778 75.1043 3.778 74.061C3.778 73.0177 2.93227 72.172 1.889 72.172C0.845734 72.172 0 73.0177 0 74.061C0 75.1043 0.845734 75.95 1.889 75.95Z" fill="#626262"/>
<path d="M11.5111 75.95C12.5543 75.95 13.4001 75.1043 13.4001 74.061C13.4001 73.0177 12.5543 72.172 11.5111 72.172C10.4678 72.172 9.62207 73.0177 9.62207 74.061C9.62207 75.1043 10.4678 75.95 11.5111 75.95Z" fill="#626262"/>
<path d="M21.1329 75.95C22.1762 75.95 23.0219 75.1043 23.0219 74.061C23.0219 73.0177 22.1762 72.172 21.1329 72.172C20.0896 72.172 19.2439 73.0177 19.2439 74.061C19.2439 75.1043 20.0896 75.95 21.1329 75.95Z" fill="#626262"/>
<path d="M30.7559 75.95C31.7992 75.95 32.6449 75.1043 32.6449 74.061C32.6449 73.0177 31.7992 72.172 30.7559 72.172C29.7127 72.172 28.8669 73.0177 28.8669 74.061C28.8669 75.1043 29.7127 75.95 30.7559 75.95Z" fill="#626262"/>
<path d="M40.378 75.95C41.4213 75.95 42.267 75.1043 42.267 74.061C42.267 73.0177 41.4213 72.172 40.378 72.172C39.3347 72.172 38.489 73.0177 38.489 74.061C38.489 75.1043 39.3347 75.95 40.378 75.95Z" fill="#626262"/>
<path d="M50.0001 75.95C51.0433 75.95 51.8891 75.1043 51.8891 74.061C51.8891 73.0177 51.0433 72.172 50.0001 72.172C48.9568 72.172 48.1111 73.0177 48.1111 74.061C48.1111 75.1043 48.9568 75.95 50.0001 75.95Z" fill="#626262"/>
<path d="M59.6219 75.95C60.6652 75.95 61.5109 75.1043 61.5109 74.061C61.5109 73.0177 60.6652 72.172 59.6219 72.172C58.5786 72.172 57.7329 73.0177 57.7329 74.061C57.7329 75.1043 58.5786 75.95 59.6219 75.95Z" fill="#626262"/>
<path d="M69.244 75.95C70.2872 75.95 71.133 75.1043 71.133 74.061C71.133 73.0177 70.2872 72.172 69.244 72.172C68.2007 72.172 67.355 73.0177 67.355 74.061C67.355 75.1043 68.2007 75.95 69.244 75.95Z" fill="#626262"/>
<path d="M78.867 75.95C79.9103 75.95 80.756 75.1043 80.756 74.061C80.756 73.0177 79.9103 72.172 78.867 72.172C77.8238 72.172 76.978 73.0177 76.978 74.061C76.978 75.1043 77.8238 75.95 78.867 75.95Z" fill="#626262"/>
<path d="M88.4891 75.95C89.5324 75.95 90.3781 75.1043 90.3781 74.061C90.3781 73.0177 89.5324 72.172 88.4891 72.172C87.4458 72.172 86.6001 73.0177 86.6001 74.061C86.6001 75.1043 87.4458 75.95 88.4891 75.95Z" fill="#626262"/>
<path d="M98.1109 75.95C99.1542 75.95 99.9999 75.1043 99.9999 74.061C99.9999 73.0177 99.1542 72.172 98.1109 72.172C97.0677 72.172 96.2219 73.0177 96.2219 74.061C96.2219 75.1043 97.0677 75.95 98.1109 75.95Z" fill="#626262"/>
</svg>
