<svg width="50" height="50" fill="none" xmlns="http://www.w3.org/2000/svg"><path opacity=".1" fill-rule="evenodd" clip-rule="evenodd" d="M25 50c13.807 0 25-11.193 25-25S38.807 0 25 0 0 11.193 0 25s11.193 25 25 25Z" fill="#72B33B"/><path d="M33.965 25h-7.93v-2.696a5.936 5.936 0 0 0 3.11-1.536c1.107-1.047 1.717-2.44 1.717-3.92v-3.261c0-.54-.463-.978-1.034-.978h-1.035c-.33 0-.654.031-.966.092a4.671 4.671 0 0 0-1.906-2.318l-.347-.219c-.348-.219-.8-.219-1.148 0l-.347.22a4.671 4.671 0 0 0-1.906 2.317 5.097 5.097 0 0 0-.966-.092h-1.035c-.57 0-1.034.438-1.034.978v3.26c0 1.482.61 2.874 1.717 3.92a5.934 5.934 0 0 0 3.11 1.537V25h-7.93c-.572 0-1.035.438-1.035.978v3.913c0 .54.463.979 1.035.979h1.232l1.894 8.357c.102.45.524.773 1.011.773h9.656c.487 0 .909-.322 1.011-.773l1.894-8.357h1.233c.57 0 1.034-.438 1.034-.979v-3.913c0-.54-.463-.978-1.035-.978ZM25 12.17c.449.348.77.814.926 1.334a4.757 4.757 0 0 0-.926.849 4.757 4.757 0 0 0-.926-.85c.156-.52.477-.985.926-1.333Zm-2.682 7.214a3.468 3.468 0 0 1-1.111-2.536v-2.283c1.521 0 2.758 1.17 2.758 2.609 0 .54.464.978 1.035.978s1.035-.438 1.035-.978c0-1.438 1.237-2.609 2.758-2.609v2.283c0 .958-.394 1.859-1.11 2.536A3.88 3.88 0 0 1 25 20.434a3.881 3.881 0 0 1-2.682-1.05Zm6.673 18.66H21.01l-1.626-7.174h11.234l-1.626 7.173Zm3.94-9.131H17.069v-1.957h15.862v1.957Z" fill="#72B33B"/></svg>