<svg width="50" height="50" fill="none" xmlns="http://www.w3.org/2000/svg"><path d="M15.851 27.085V19.02c0-.616.362-1.174.925-1.424a20.25 20.25 0 0 1 16.448 0c.563.25.925.808.925 1.424v8.065c0 .68-.34 1.314-.905 1.692l-7.116 4.744a2.033 2.033 0 0 1-2.256 0l-7.116-4.744a2.033 2.033 0 0 1-.905-1.692Z" stroke="#72B33B" stroke-width="1.702"/><path d="M25.541 21 23 23.541M28 23l-3 3" stroke="#72B33B" stroke-width="1.702" stroke-linecap="round"/><path opacity=".1" fill-rule="evenodd" clip-rule="evenodd" d="M25 50c13.807 0 25-11.193 25-25S38.807 0 25 0 0 11.193 0 25s11.193 25 25 25Z" fill="#72B33B"/></svg>