<svg width="50" height="50" fill="none" xmlns="http://www.w3.org/2000/svg"><path fill-rule="evenodd" clip-rule="evenodd" d="M25 30.125c3.23 0 5.625-2.414 5.625-5.125 0-2.71-2.395-5.125-5.625-5.125S19.375 22.289 19.375 25c0 2.71 2.395 5.125 5.625 5.125ZM25 32c4.142 0 7.5-3.134 7.5-7s-3.358-7-7.5-7c-4.142 0-7.5 3.134-7.5 7s3.358 7 7.5 7ZM24 16v-3h1.875v3H24ZM24 37v-3h1.875v3H24ZM34 24h3v1.875h-3V24ZM13 24h3v1.875h-3V24ZM30.657 17.929l2.121-2.121 1.326 1.325-2.121 2.122-1.326-1.326ZM15.808 32.778l2.12-2.121 1.327 1.326-2.122 2.121-1.325-1.326ZM32.071 30.657l2.121 2.121-1.325 1.326-2.122-2.121 1.326-1.326ZM17.222 15.808l2.121 2.12-1.326 1.327-2.121-2.122 1.326-1.325Z" fill="#72B33B"/><path opacity=".1" fill-rule="evenodd" clip-rule="evenodd" d="M25 50c13.807 0 25-11.193 25-25S38.807 0 25 0 0 11.193 0 25s11.193 25 25 25Z" fill="#72B33B"/></svg>