<svg width="1234" height="1480" fill="none" xmlns="http://www.w3.org/2000/svg"><path d="M675.079 104.367c-39.262 95.278 4.438 410.464-212.504 528.988-202.422 110.592-359.054 123.656-361.023 205.399-1.97 81.743 78.037 117.35 182.698 88.599 69.268-19.029 167.413-44.078 297.656-175.653 60.545-61.164 111.088-215.522 172.163-241.224 51.851-21.819 151.338 26.668 75.381 131.719-45.177 62.481-286.247 191.434-212.692 293.17 42.482 58.759 198.307-6.526 259.794-123.21 66.669-126.52-8.402-433.643 122.123-481.016 130.525-47.372 272.705-3.051 211.735 130.194-60.97 133.244-527.922 47.419-778.999 303.579-137.965 140.759-209.58 355.788-155.155 494.218 66.988 170.39 155.747 19.59 223.257-86.22 86.044-134.86 228.826-169.9 306.407-129.55 57.046 29.68 31.392 135.47-32.691 206.1-64.083 70.62-114.37 143.98-78.757 200.17s273.367-4.31 261.646-311.23c-11.127-291.366 81.992-324.015 153.062-396.877 71.07-72.861 248.29-630.27-80.24-611.725-328.526 18.545-575.2 91.986-625.958 280.806-50.759 188.82-88.747 231.206-216.673 266.612C58.383 712.623-3.201 583.641 31.328 493.061c34.528-90.581 84.726-32.4 175.204-87.191 77.352-46.842 81.562-89.782 143.242-184.186C414.538 122.56 554.97 47.813 638.946 14.554" stroke="#343434" stroke-width="4"/></svg>