<svg width="1234" height="1480" viewBox="0 0 1234 1480" fill="none" xmlns="http://www.w3.org/2000/svg">
<path d="M675.079 104.367C635.817 199.645 679.517 514.831 462.575 633.355C260.153 743.947 103.521 757.011 101.552 838.754C99.582 920.497 179.589 956.104 284.25 927.353C353.518 908.324 451.663 883.275 581.906 751.7C642.451 690.536 692.994 536.178 754.069 510.476C805.92 488.657 905.407 537.144 829.45 642.195C784.273 704.676 543.203 833.629 616.758 935.365C659.24 994.124 815.065 928.839 876.552 812.155C943.221 685.635 868.15 378.512 998.675 331.139C1129.2 283.767 1271.38 328.088 1210.41 461.333C1149.44 594.577 682.488 508.752 431.411 764.912C293.446 905.671 221.831 1120.7 276.256 1259.13C343.244 1429.52 432.003 1278.72 499.513 1172.91C585.557 1038.05 728.339 1003.01 805.92 1043.36C862.966 1073.04 837.312 1178.83 773.229 1249.46C709.146 1320.08 658.859 1393.44 694.472 1449.63C730.085 1505.82 967.839 1445.32 956.118 1138.4C944.991 847.034 1038.11 814.385 1109.18 741.523C1180.25 668.662 1357.47 111.253 1028.94 129.798C700.414 148.343 453.74 221.784 402.982 410.604C352.223 599.424 314.235 641.81 186.309 677.216C58.3827 712.623 -3.20106 583.641 31.3275 493.061C65.8561 402.48 116.054 460.661 206.532 405.87C283.884 359.028 288.094 316.088 349.774 221.684C414.538 122.56 554.97 47.8127 638.946 14.5542" stroke="#343434" stroke-width="4"/>
</svg>
