<svg width="50" height="50" fill="none" xmlns="http://www.w3.org/2000/svg"><path fill-rule="evenodd" clip-rule="evenodd" d="M35.125 25c0-5.055-4.426-9.375-10.125-9.375-5.7 0-10.125 4.32-10.125 9.375S19.301 34.375 25 34.375c5.7 0 10.125-4.32 10.125-9.375ZM37 25c0-6.202-5.38-11.25-12-11.25S13 18.798 13 25s5.38 11.25 12 11.25S37 31.202 37 25Z" fill="#72B33B"/><path fill-rule="evenodd" clip-rule="evenodd" d="M24.063 19.375h1.875v4.688H29.5v1.875h-5.438v-6.563Z" fill="#72B33B"/><path opacity=".1" fill-rule="evenodd" clip-rule="evenodd" d="M25 50c13.807 0 25-11.193 25-25S38.807 0 25 0 0 11.193 0 25s11.193 25 25 25Z" fill="#72B33B"/></svg>